Coordinates
version=1
nRows=17
nColumns=40
inDegrees=yes

Units are S.I. units (second, meters, Newtons, ...)
Angles are in degrees.

endheader
time	pelvis_tilt	pelvis_list	pelvis_rotation	pelvis_tx	pelvis_ty	pelvis_tz	hip_flexion_r	hip_adduction_r	hip_rotation_r	knee_angle_r	knee_angle_r_beta	ankle_angle_r	subtalar_angle_r	mtp_angle_r	hip_flexion_l	hip_adduction_l	hip_rotation_l	knee_angle_l	knee_angle_l_beta	ankle_angle_l	subtalar_angle_l	mtp_angle_l	lumbar_extension	lumbar_bending	lumbar_rotation	arm_flex_r	arm_add_r	arm_rot_r	elbow_flex_r	pro_sup_r	wrist_flex_r	wrist_dev_r	arm_flex_l	arm_add_l	arm_rot_l	elbow_flex_l	pro_sup_l	wrist_flex_l	wrist_dev_l
     40.93750000	     -1.97372095	     -3.86932200	     -1.65556777	      0.98281847	      0.91622180	      0.38510860	     27.20938408	     -8.82859986	     -1.38085947	     66.71840256	     66.71840256	      0.76085203	    -19.18055381	      7.73074012	     17.87051352	     -1.55549808	     -2.86923098	     33.14493083	     33.14493083	     20.03068637	    -17.66184246	      8.13779194	    -11.80264238	      6.84234559	      3.01389598	      1.55111481	    -12.32476104	     -7.42273975	     21.58528856	     46.73305109	      0.00000000	      0.00000000	     28.28343578	    -18.12805973	     14.17149578	     42.92416212	     45.85325603	      0.00000000	      0.00000000
     40.95957143	     -2.10765031	     -4.05178616	     -2.44999870	      0.98188629	      0.91839207	      0.38510620	     28.49007573	     -8.21826414	     -1.41999012	     66.37245921	     66.37245921	      2.52035480	    -19.19577391	     12.56203969	     17.03099146	     -1.89782910	     -3.67169527	     31.94990404	     31.94990404	     19.62295738	    -17.46472308	      7.40564322	    -11.79472007	      7.10338323	      2.36076194	     -2.19653922	    -12.18314356	     -7.89507800	     22.88025288	     46.68722805	      0.00000000	      0.00000000	     29.52878338	    -19.73925539	     12.01281095	     46.71873353	     46.12963795	      0.00000000	      0.00000000
     40.98164286	     -2.24838520	     -4.11269266	     -3.35818340	      0.98087079	      0.92102158	      0.38545875	     29.38557629	     -7.76783146	     -1.50376140	     64.92646123	     64.92646123	      3.18675730	    -19.19308900	     12.63577392	     16.02784386	     -2.09100445	     -4.55214163	     30.45453093	     30.45453093	     19.35611889	    -17.22556578	      7.52276783	    -11.74753551	      7.19529969	      2.32885604	     -5.32426988	    -12.13115834	     -7.92654911	     22.19498163	     46.69021095	      0.00000000	      0.00000000	     31.80343001	    -20.82693768	     11.04126593	     48.60509651	     46.26655879	      0.00000000	      0.00000000
     41.00371429	     -2.44313813	     -4.23662147	     -4.31919265	      0.97972321	      0.92378689	      0.38633691	     30.04874344	     -7.11318109	     -1.52409951	     62.63966810	     62.63966810	      3.84648121	    -19.09080402	     12.30219653	     15.00674915	     -2.38740287	     -5.55146571	     28.81945116	     28.81945116	     18.99076537	    -16.85765824	      7.47659029	    -11.73480473	      7.31002234	      2.36695008	     -8.39576781	    -12.10309492	     -8.08028179	     22.17151887	     46.67212015	      0.00000000	      0.00000000	     33.86619107	    -21.92176945	      9.89583807	     50.98983467	     46.41986985	      0.00000000	      0.00000000
     41.02578571	     -2.81777749	     -4.42713624	     -5.25533304	      0.97840378	      0.92611889	      0.38759277	     30.54690274	     -6.39442073	     -1.63963469	     59.45727532	     59.45727532	      3.68095489	    -18.90490158	      9.26577958	     14.19516436	     -2.79057954	     -6.57961520	     27.17473939	     27.17473939	     18.07710238	    -16.62818191	      6.01872790	    -11.61417921	      7.53398926	      1.97632763	    -11.98107336	    -12.19451340	     -8.46606439	     25.30865406	     46.51847870	      0.00000000	      0.00000000	     34.80034696	    -23.35938451	      7.23847480	     55.30838751	     46.72750000	      0.00000000	      0.00000000
     41.04785714	     -3.09847686	     -4.62534072	     -6.22412189	      0.97700090	      0.92848022	      0.38927941	     30.71789008	     -5.50613705	     -1.49002414	     55.68920126	     55.68920126	      4.09517828	    -18.33959554	      8.30916949	     13.32195274	     -3.19676761	     -7.61727507	     25.66213137	     25.66213137	     17.79375325	    -16.13697914	      6.15304194	    -11.56044722	      7.70271752	      2.13302557	    -14.34863969	    -12.14085497	     -8.45424559	     25.11024626	     46.50081018	      0.00000000	      0.00000000	     37.01141898	    -24.33528219	      6.31142738	     57.19806397	     46.85111773	      0.00000000	      0.00000000
     41.06992857	     -3.48176356	     -4.76096310	     -7.15024640	      0.97557865	      0.93018042	      0.39104312	     30.49074976	     -4.89230779	     -1.61990861	     50.85608830	     50.85608830	      2.35257014	    -17.70425874	      0.89294660	     12.63833941	     -3.54514971	     -8.66564271	     24.25951942	     24.25951942	     17.09288394	    -15.80486596	      5.00263797	    -11.47735681	      7.84078659	      1.94009834	    -17.36193574	    -12.27870393	     -8.21406945	     28.23925123	     46.29813060	      0.00000000	      0.00000000	     38.16281100	    -25.39561147	      3.84664533	     60.92817364	     47.13228020	      0.00000000	      0.00000000
     41.09200000	     -3.84936560	     -4.97220186	     -7.97673794	      0.97417107	      0.93157883	      0.39311186	     30.14979951	     -4.12569874	     -1.64434898	     46.01333978	     46.01333978	      2.80256203	    -15.53254520	      0.52113994	     12.11315146	     -3.97211639	     -9.51426284	     23.23305811	     23.23305811	     16.96543386	    -15.39250109	      5.14483386	    -11.30870612	      8.04515384	      1.96966973	    -19.02407005	    -12.18560215	     -8.19486080	     28.07165099	     46.28704983	      0.00000000	      0.00000000	     40.22468667	    -26.26051162	      3.17959863	     62.42040016	     47.22371245	      0.00000000	      0.00000000
     41.11407143	     -4.36267851	     -5.04572411	     -8.79214592	      0.97260769	      0.93209849	      0.39539490	     29.84313986	     -3.49354296	     -1.59791642	     41.00462721	     41.00462721	      3.00708667	    -12.79007402	      0.33833113	     11.92678268	     -4.29936616	    -10.34566201	     22.50261594	     22.50261594	     16.88410716	    -15.12707903	      5.17755083	    -11.01275713	      8.09842143	      1.99028149	    -20.33873959	    -11.94648078	     -8.21073281	     28.15305173	     46.27061921	      0.00000000	      0.00000000	     42.35583949	    -27.19891147	      2.45012331	     63.90474048	     47.31867663	      0.00000000	      0.00000000
     41.13614286	     -4.37840332	     -5.00069673	     -9.46249977	      0.97181175	      0.93256245	      0.39750074	     28.53361809	     -3.38162141	     -2.22071906	     35.39105898	     35.39105898	      1.89445395	     -8.91946802	     -4.48052737	     11.21359787	     -4.44537955	    -11.35272390	     21.83956113	     21.83956113	     16.60200058	    -14.60594350	      3.91524807	    -11.33541096	      8.06418711	      1.97971660	    -23.08660186	    -12.11949136	     -7.36470374	     32.61672602	     45.98181502	      0.00000000	      0.00000000	     43.05500591	    -27.55681578	     -0.31154938	     68.25648263	     47.61594268	      0.00000000	      0.00000000
     41.15821429	     -4.55392595	     -5.00456235	    -10.00960111	      0.97094157	      0.93239041	      0.39996933	     27.43752543	     -3.01917015	     -2.57465707	     30.27306122	     30.27306122	      1.98653318	     -4.75998452	     -3.83513856	     10.91711615	     -4.66691810	    -11.98007126	     21.62988751	     21.62988751	     16.74867508	    -14.37002172	      3.72242565	    -11.33050810	      8.06628606	      2.03921593	    -24.04716198	    -11.85027213	     -7.29464269	     32.87736863	     45.95712687	      0.00000000	      0.00000000	     44.83263632	    -28.06839615	     -0.88846296	     69.80121541	     47.69740251	      0.00000000	      0.00000000
     41.18028571	     -4.70413841	     -4.80632082	    -10.43974231	      0.97040947	      0.93158190	      0.40247584	     26.44807135	     -3.00301724	     -3.28617649	     25.80850702	     25.80850702	      2.32374028	      0.20414442	     -2.31298583	     10.71201578	     -4.69086960	    -12.59801792	     21.60507412	     21.60507412	     16.95548927	    -14.06206844	      3.21706162	    -11.29330726	      7.85373592	      2.02351139	    -25.12146200	    -11.57924506	     -7.21406883	     34.25323442	     45.88375613	      0.00000000	      0.00000000	     46.16392553	    -28.36658707	     -1.96831602	     72.01178698	     47.82269891	      0.00000000	      0.00000000
     41.20235714	     -4.81922873	     -4.67949830	    -10.77765484	      0.97010644	      0.93050826	      0.40526068	     25.53663120	     -2.81049454	     -3.68588007	     22.11159675	     22.11159675	      3.22976636	      4.38733458	      1.89590944	     10.57854933	     -4.78921981	    -12.96782491	     21.80022545	     21.80022545	     17.06564954	    -14.09533687	      2.49073226	    -11.27850181	      7.76543782	      1.75643554	    -26.18605183	    -11.65286228	     -6.11101106	     36.62804463	     45.71527248	      0.00000000	      0.00000000	     47.05478370	    -28.69684974	     -3.45970592	     74.15316151	     47.97559690	      0.00000000	      0.00000000
     41.22442857	     -4.87120496	     -4.44597431	    -11.01576144	      0.97014712	      0.92920052	      0.40825636	     24.60605907	     -2.73987077	     -4.10613733	     18.90724758	     18.90724758	      3.12533878	      7.86630242	      3.17308773	     10.42120678	     -4.77423756	    -13.28609229	     22.08429358	     22.08429358	     17.41434293	    -14.02840314	      2.13355891	    -11.23192232	      7.53659404	      1.77161975	    -26.54218247	    -11.37553088	     -5.84355768	     37.14268881	     45.67803775	      0.00000000	      0.00000000	     48.27579771	    -28.76495463	     -3.95708584	     75.43768231	     48.04197481	      0.00000000	      0.00000000
     41.24650000	     -4.97702654	     -4.25631892	    -11.16028541	      0.97037349	      0.92774888	      0.41154868	     23.84256508	     -2.52259272	     -4.03919652	     16.40372187	     16.40372187	      2.86489461	      9.90510513	      4.01344418	     10.38042930	     -4.81281916	    -13.35934307	     22.48531778	     22.48531778	     17.74855146	    -14.16742437	      1.86051556	    -11.08054854	      7.37215556	      1.71592068	    -26.57552145	    -11.12772802	     -5.71069644	     37.49227605	     45.65643798	      0.00000000	      0.00000000	     49.32437272	    -28.81802169	     -4.27379514	     76.29770038	     48.08621280	      0.00000000	      0.00000000
     41.26857143	     -4.97526255	     -4.04401566	    -11.31355472	      0.97101238	      0.92649297	      0.41509465	     23.16621573	     -2.42782145	     -4.24997649	     14.75863650	     14.75863650	      2.81639663	     11.99927653	      4.63312036	     10.12470451	     -4.81747960	    -13.53789687	     22.76637287	     22.76637287	     18.12783379	    -14.17114751	      1.60793446	    -11.03819754	      7.22713640	      1.81829261	    -26.73568270	    -11.03029055	     -5.52063144	     38.11565931	     45.62065209	      0.00000000	      0.00000000	     49.89945117	    -28.70949211	     -4.83071575	     77.40471191	     48.14752194	      0.00000000	      0.00000000
     41.29064286	     -5.10490386	     -3.71804180	    -11.42128163	      0.97169847	      0.92510834	      0.41892389	     22.99361168	     -2.37947561	     -3.93975617	     14.12883139	     14.12883139	      2.92372224	     12.67176721	      4.69085500	     10.00455293	     -4.71385639	    -13.63234573	     22.96861967	     22.96861967	     18.43531491	    -14.29509440	      1.45534450	    -10.77662661	      6.94030676	      1.79882899	    -26.45309859	    -10.96847931	     -5.45775726	     38.44361008	     45.60634537	      0.00000000	      0.00000000	     50.47418813	    -28.70794439	     -5.06986417	     77.88649671	     48.17598006	      0.00000000	      0.00000000
